<svg width="48" height="40" viewBox="0 0 48 40" fill="none" xmlns="http://www.w3.org/2000/svg">
<path id="Vector" d="M12 30C13.7091 30 15.3731 30.2192 16.992 30.6575C18.6109 31.0958 20.2196 31.7517 21.8182 32.625V8C20.3273 7 18.7454 6.25 17.0727 5.75C15.4 5.25 13.7091 5 12 5C10.6909 5 9.39054 5.14583 8.09891 5.4375C6.80727 5.72917 5.56218 6.16667 4.36364 6.75V31.5C5.63636 31 6.90036 30.625 8.15563 30.375C9.41091 30.125 10.6924 30 12 30ZM26.1818 32.625C27.7818 31.75 29.3913 31.0942 31.0102 30.6575C32.6291 30.2208 34.2924 30.0017 36 30C37.3091 30 38.5913 30.125 39.8465 30.375C41.1018 30.625 42.3651 31 43.6364 31.5V6.75C42.4364 6.16667 41.1905 5.72917 39.8989 5.4375C38.6073 5.14583 37.3076 5 36 5C34.2909 5 32.6 5.25 30.9273 5.75C29.2545 6.25 27.6727 7 26.1818 8V32.625ZM24 40C22.2545 38.4167 20.3636 37.1875 18.3273 36.3125C16.2909 35.4375 14.1818 35 12 35C10.4727 35 8.97309 35.2292 7.50109 35.6875C6.02909 36.1458 4.61964 36.7917 3.27273 37.625C2.50909 38.0833 1.77309 38.0625 1.06473 37.5625C0.356364 37.0625 0.00145454 36.3333 0 35.375V5.25C0 4.79167 0.100364 4.35417 0.301091 3.9375C0.501818 3.52083 0.801454 3.20833 1.2 3C2.87273 2 4.61818 1.25 6.43636 0.75C8.25454 0.25 10.1091 0 12 0C14.1091 0 16.1731 0.3125 18.192 0.9375C20.2109 1.5625 22.1469 2.5 24 3.75C25.8545 2.5 27.7913 1.5625 29.8102 0.9375C31.8291 0.3125 33.8924 0 36 0C37.8909 0 39.7454 0.25 41.5636 0.75C43.3818 1.25 45.1273 2 46.8 3C47.2 3.20833 47.5004 3.52083 47.7011 3.9375C47.9018 4.35417 48.0014 4.79167 48 5.25V35.375C48 36.3333 47.6458 37.0625 46.9374 37.5625C46.2291 38.0625 45.4924 38.0833 44.7273 37.625C43.3818 36.7917 41.9731 36.1458 40.5011 35.6875C39.0291 35.2292 37.5287 35 36 35C33.8182 35 31.7091 35.4375 29.6727 36.3125C27.6364 37.1875 25.7454 38.4167 24 40Z" fill="#6B3906"/>
</svg>
