<svg width="42" height="42" viewBox="0 0 42 42" fill="none" xmlns="http://www.w3.org/2000/svg">
<g id="Group">
<path id="Vector" d="M35 20H36C37.87 20 38.804 20 39.5 20.402C39.956 20.6653 40.3347 21.044 40.598 21.5C41 22.196 41 23.13 41 25C41 26.87 41 27.804 40.598 28.5C40.3347 28.956 39.956 29.3347 39.5 29.598C38.804 30 37.87 30 36 30H35M7 20H6C4.13 20 3.196 20 2.5 20.402C2.04398 20.6653 1.66529 21.044 1.402 21.5C1 22.196 1 23.13 1 25C1 26.87 1 27.804 1.402 28.5C1.66529 28.956 2.04398 29.3347 2.5 29.598C3.196 30 4.13 30 6 30H7M21 7C21.7956 7 22.5587 6.68393 23.1213 6.12132C23.6839 5.55871 24 4.79565 24 4C24 3.20435 23.6839 2.44129 23.1213 1.87868C22.5587 1.31607 21.7956 1 21 1C20.2044 1 19.4413 1.31607 18.8787 1.87868C18.3161 2.44129 18 3.20435 18 4C18 4.79565 18.3161 5.55871 18.8787 6.12132C19.4413 6.68393 20.2044 7 21 7ZM21 7V13M15 21V23M27 21V23M19 13H23C28.656 13 31.486 13 33.242 14.758C35 16.514 35 19.344 35 25C35 30.656 35 33.486 33.242 35.242C31.486 37 28.656 37 23 37H21C21 37 20 41 13 41C13 41 15 38.982 15 36.966C11.894 36.872 10.04 36.526 8.758 35.242C7 33.486 7 30.656 7 25C7 19.344 7 16.514 8.758 14.758C10.514 13 13.344 13 19 13Z" stroke="#6B3906" stroke-width="2" stroke-linecap="round" stroke-linejoin="round"/>
<path id="Vector_2" d="M17 30C17 30 18.334 31 21 31C23.666 31 25 30 25 30" stroke="#6B3906" stroke-width="2" stroke-linecap="round" stroke-linejoin="round"/>
</g>
</svg>
