<svg width="76" height="78" viewBox="0 0 76 78" fill="none" xmlns="http://www.w3.org/2000/svg">
<g id="Group 90" filter="url(#filter0_d_544_282)">
<ellipse id="Ellipse 2" cx="38" cy="35" rx="34" ry="35" fill="#DCB78F"/>
<g id="Group">
<path id="Vector" d="M52 34H53C54.87 34 55.804 34 56.5 34.402C56.956 34.6653 57.3347 35.044 57.598 35.5C58 36.196 58 37.13 58 39C58 40.87 58 41.804 57.598 42.5C57.3347 42.956 56.956 43.3347 56.5 43.598C55.804 44 54.87 44 53 44H52M24 34H23C21.13 34 20.196 34 19.5 34.402C19.044 34.6653 18.6653 35.044 18.402 35.5C18 36.196 18 37.13 18 39C18 40.87 18 41.804 18.402 42.5C18.6653 42.956 19.044 43.3347 19.5 43.598C20.196 44 21.13 44 23 44H24M38 21C38.7956 21 39.5587 20.6839 40.1213 20.1213C40.6839 19.5587 41 18.7956 41 18C41 17.2044 40.6839 16.4413 40.1213 15.8787C39.5587 15.3161 38.7956 15 38 15C37.2044 15 36.4413 15.3161 35.8787 15.8787C35.3161 16.4413 35 17.2044 35 18C35 18.7956 35.3161 19.5587 35.8787 20.1213C36.4413 20.6839 37.2044 21 38 21ZM38 21V27M32 35V37M44 35V37M36 27H40C45.656 27 48.486 27 50.242 28.758C52 30.514 52 33.344 52 39C52 44.656 52 47.486 50.242 49.242C48.486 51 45.656 51 40 51H38C38 51 37 55 30 55C30 55 32 52.982 32 50.966C28.894 50.872 27.04 50.526 25.758 49.242C24 47.486 24 44.656 24 39C24 33.344 24 30.514 25.758 28.758C27.514 27 30.344 27 36 27Z" stroke="#6B3906" stroke-width="2" stroke-linecap="round" stroke-linejoin="round"/>
<path id="Vector_2" d="M34 44C34 44 35.334 45 38 45C40.666 45 42 44 42 44" stroke="#6B3906" stroke-width="2" stroke-linecap="round" stroke-linejoin="round"/>
</g>
</g>
<defs>
<filter id="filter0_d_544_282" x="0" y="0" width="76" height="78" filterUnits="userSpaceOnUse" color-interpolation-filters="sRGB">
<feFlood flood-opacity="0" result="BackgroundImageFix"/>
<feColorMatrix in="SourceAlpha" type="matrix" values="0 0 0 0 0 0 0 0 0 0 0 0 0 0 0 0 0 0 127 0" result="hardAlpha"/>
<feOffset dy="4"/>
<feGaussianBlur stdDeviation="2"/>
<feComposite in2="hardAlpha" operator="out"/>
<feColorMatrix type="matrix" values="0 0 0 0 0 0 0 0 0 0 0 0 0 0 0 0 0 0 0.25 0"/>
<feBlend mode="normal" in2="BackgroundImageFix" result="effect1_dropShadow_544_282"/>
<feBlend mode="normal" in="SourceGraphic" in2="effect1_dropShadow_544_282" result="shape"/>
</filter>
</defs>
</svg>
