<svg width="52" height="44" viewBox="0 0 52 44" fill="none" xmlns="http://www.w3.org/2000/svg">
<path d="M2.09353 20.5281C4.81914 12.0164 9.97141 7.71261 25.9612 1C33.1998 3.96474 36.8294 5.67181 41.6922 8.86549C45.8749 12.2586 47.7106 14.9068 50.3714 20.5281C51.179 25.7179 51.2396 28.628 50.3714 33.8181C46.8391 39.5328 44.1713 41.952 36.8102 43.3109H17.0108C13.891 43.0275 12.0579 42.5973 8.6029 41.1411C5.60186 38.8783 4.18353 37.2651 2.09353 33.8181C0.533515 29.3232 0.741158 26.3204 2.09353 20.5281Z" fill="#6B3906" stroke="#473521"/>
<path d="M13.2049 35.7164C8.98371 35.3694 6.60155 34.8026 2.35596 33.8179C3.84899 36.8742 5.12683 37.9678 8.59411 40.8697C10.919 41.849 12.7645 42.8235 15.1035 43.0395L37.3438 43.3107C43.8959 41.8193 46.4588 39.6799 50.0914 33.8179C45.3209 34.9832 42.722 35.4328 37.3438 35.9877C28.0638 36.3287 22.8727 36.5549 13.2049 35.7164Z" fill="#B28147" stroke="#473521"/>
</svg>
