<svg width="31" height="31" viewBox="0 0 31 31" fill="none" xmlns="http://www.w3.org/2000/svg">
<g id="twemoji:fire" clip-path="url(#clip0_620_526)">
<path id="Vector" d="M29.6666 16.3333C29.6686 14.665 29.3752 13.0094 28.7999 11.4433C28.4166 15.9342 26.0224 18.2408 23.5208 17.1667C21.1774 16.16 22.7566 12.2358 22.8733 10.3633C23.0699 7.18917 22.8633 3.55584 17.0974 0.535004C19.4933 5.11834 17.3749 7.96584 15.1533 8.13917C12.6883 8.33167 10.4308 6.02084 11.2641 2.27084C8.56577 4.25917 8.48743 7.60584 9.31993 9.77084C10.1883 12.0275 9.28493 13.9025 7.16743 14.1108C4.80077 14.3442 3.48577 11.5767 4.69827 7.16667C2.52161 9.7245 1.32848 12.9747 1.33327 16.3333C1.33327 24.1575 7.67577 30.5 15.4999 30.5C23.3241 30.5 29.6666 24.1575 29.6666 16.3333Z" fill="#F4900C"/>
<path id="Vector_2" d="M24.1617 20.4992C24.285 23.0692 22.0275 24.0767 20.8125 23.59C19.0575 22.8875 19.5283 21.6808 19.0767 19.1808C18.625 16.6808 16.8892 14.945 14.32 14.1808C16.195 19.4583 13.2808 21.4033 11.7533 21.7508C10.1933 22.1058 8.62584 21.75 8.44667 18.4117C7.51149 19.3398 6.76957 20.4442 6.26379 21.6609C5.75801 22.8775 5.49841 24.1824 5.50001 25.5C5.50001 25.8067 5.51917 26.1083 5.54584 26.4083C8.10417 28.9367 11.6183 30.5 15.5 30.5C19.3817 30.5 22.8958 28.9367 25.4542 26.4083C25.4808 26.1083 25.5 25.8067 25.5 25.5C25.5 23.6775 25.0133 21.97 24.1617 20.4992Z" fill="#FFCC4D"/>
</g>
<defs>
<clipPath id="clip0_620_526">
<rect width="30" height="30" fill="white" transform="translate(0.5 0.5)"/>
</clipPath>
</defs>
</svg>
