<svg width="27" height="27" viewBox="0 0 27 27" fill="none" xmlns="http://www.w3.org/2000/svg">
<path id="Vector" fill-rule="evenodd" clip-rule="evenodd" d="M2.3085 26.9872H7.5L9.609 22.0524L5.16 20.7126L2.3085 26.9872ZM17.391 22.0524L19.5 26.9872H24.6915L21.84 20.7126L17.391 22.0524ZM25.5 2.96681H15.75L15 0.297873H12L11.25 2.96681H1.5C1.10218 2.96681 0.720644 3.1074 0.43934 3.35767C0.158035 3.60793 0 3.94735 0 4.30128V18.9804C0 19.3343 0.158035 19.6738 0.43934 19.924C0.720644 20.1743 1.10218 20.3149 1.5 20.3149H25.5C25.8978 20.3149 26.2794 20.1743 26.5607 19.924C26.842 19.6738 27 19.3343 27 18.9804V4.30128C27 3.94735 26.842 3.60793 26.5607 3.35767C26.2794 3.1074 25.8978 2.96681 25.5 2.96681Z" fill="black"/>
</svg>
