<svg width="42" height="38" viewBox="0 0 42 38" fill="none" xmlns="http://www.w3.org/2000/svg">
<g id="cil:chat-bubble">
<path id="Vector" d="M36.3165 29.0086C38.7485 27.0122 40.1256 24.3512 40.1256 21.5899C40.1256 18.6552 38.634 15.9106 35.9255 13.8612C33.2894 11.8673 29.8002 10.7691 26.1002 10.7691C22.4001 10.7691 18.9109 11.8673 16.2753 13.8614C13.5668 15.9106 12.0752 18.6552 12.0752 21.5899C12.0752 24.5245 13.5668 27.2691 16.2753 29.3185C18.9109 31.3125 22.4001 32.4107 26.1002 32.4107C26.5932 32.4107 27.0893 32.3906 27.5812 32.3508L28.4216 33.0217C31.3167 35.3324 35.0193 36.6045 38.8502 36.6046H40.1252V34.105L39.7518 33.7611C38.2787 32.4003 37.1113 30.7853 36.3165 29.0086ZM30.0917 31.2467L28.4054 29.9005L27.8431 29.964C27.2648 30.0292 26.6828 30.0618 26.1002 30.0619C19.773 30.0619 14.6252 26.2613 14.6252 21.5899C14.6252 16.9184 19.773 13.1178 26.1002 13.1178C32.4274 13.1178 37.5752 16.9183 37.5752 21.5899C37.5752 23.9173 36.3145 26.0901 34.0254 27.708L33.2911 28.227L33.6299 29.1103C34.3243 30.9144 35.3449 32.5973 36.6487 34.0879C34.2208 33.7146 31.9518 32.7314 30.0917 31.2467Z" fill="#6B3906"/>
<path id="Vector_2" d="M5.39599 23.5016C6.58949 22.1101 7.52657 20.5474 8.16975 18.8759L8.50604 17.997L7.77235 17.4784C5.61378 15.9528 4.425 13.9052 4.425 11.7128C4.425 7.30721 9.28665 3.72304 15.2625 3.72304C19.6587 3.72304 23.4517 5.66291 25.1499 8.44243C25.4652 8.42834 25.7819 8.42041 26.1 8.42041C26.7389 8.42041 27.372 8.44896 27.9993 8.50606C27.343 6.94015 26.2034 5.51069 24.6365 4.32533C22.1214 2.42239 18.7927 1.37436 15.2625 1.37436C11.7323 1.37436 8.40364 2.42239 5.88838 4.32533C3.30029 6.28348 1.875 8.90703 1.875 11.7128C1.875 14.3403 3.17805 16.8722 5.48086 18.7766C4.72936 20.4424 3.63128 21.9566 2.2485 23.2339L1.875 23.5779V26.0355H3.15C5.50772 26.0353 7.83301 25.5296 9.94184 24.5584C9.7106 23.7512 9.57511 22.9232 9.53775 22.089C8.25779 22.78 6.85584 23.2581 5.39599 23.5016Z" fill="#6B3906"/>
</g>
</svg>
