<svg width="40" height="40" viewBox="0 0 40 40" fill="none" xmlns="http://www.w3.org/2000/svg">
<path id="Vector" d="M21.1765 40L20.5882 34H20C14.4314 34 9.70588 32.35 5.82353 29.05C1.94118 25.75 0 21.7333 0 17C0 12.2667 1.94118 8.25 5.82353 4.95C9.70588 1.65 14.4314 0 20 0C22.7843 0 25.3827 0.441333 27.7953 1.324C30.2078 2.20667 32.3255 3.42333 34.1482 4.974C35.971 6.52467 37.4016 8.32467 38.44 10.374C39.4784 12.4233 39.9984 14.632 40 17C40 19.5 39.52 21.9 38.56 24.2C37.6 26.5 36.2855 28.6333 34.6165 30.6C32.9474 32.5667 30.9671 34.35 28.6753 35.95C26.3835 37.55 23.8839 38.9 21.1765 40ZM25.8824 32.7C28.6667 30.7 30.9318 28.3587 32.6777 25.676C34.4235 22.9933 35.2957 20.1013 35.2941 17C35.2941 13.3667 33.8133 10.292 30.8518 7.776C27.8902 5.26 24.2729 4.00133 20 4C15.7271 3.99867 12.1098 5.25733 9.14824 7.776C6.18667 10.2947 4.70588 13.3693 4.70588 17C4.70588 20.6307 6.18667 23.706 9.14824 26.226C12.1098 28.746 15.7271 30.004 20 30H25.8824V32.7ZM19.9412 27.95C20.6078 27.95 21.1765 27.75 21.6471 27.35C22.1176 26.95 22.3529 26.4667 22.3529 25.9C22.3529 25.3333 22.1176 24.85 21.6471 24.45C21.1765 24.05 20.6078 23.85 19.9412 23.85C19.2745 23.85 18.7059 24.05 18.2353 24.45C17.7647 24.85 17.5294 25.3333 17.5294 25.9C17.5294 26.4667 17.7647 26.95 18.2353 27.35C18.7059 27.75 19.2745 27.95 19.9412 27.95ZM18.2353 21.6H21.7647C21.7647 20.6 21.8824 19.9 22.1176 19.5C22.3529 19.1 23.098 18.3667 24.3529 17.3C25.0588 16.7 25.6471 16.05 26.1176 15.35C26.5882 14.65 26.8235 13.9 26.8235 13.1C26.8235 11.4 26.1475 10.1253 24.7953 9.276C23.4431 8.42667 21.8447 8.00133 20 8C18.2745 8 16.8235 8.40867 15.6471 9.226C14.4706 10.0433 13.6471 11.0347 13.1765 12.2L16.4706 13.3C16.6667 12.7333 17.0392 12.1753 17.5882 11.626C18.1373 11.0767 18.9412 10.8013 20 10.8C21.0588 10.7987 21.8533 11.0487 22.3835 11.55C22.9137 12.0513 23.178 12.6013 23.1765 13.2C23.1765 13.7667 22.9804 14.2753 22.5882 14.726C22.1961 15.1767 21.7255 15.6347 21.1765 16.1C19.8039 17.1 18.971 17.892 18.6776 18.476C18.3843 19.06 18.2369 20.1013 18.2353 21.6Z" fill="#6B3906"/>
</svg>
