<svg width="21" height="21" viewBox="0 0 21 21" fill="none" xmlns="http://www.w3.org/2000/svg">
<path id="Vector" d="M18.4859 11.41C18.3217 11.2275 18.2311 10.9929 18.2311 10.75C18.2311 10.5071 18.3217 10.2725 18.4859 10.09L19.7973 8.65C19.9418 8.49267 20.0316 8.29471 20.0536 8.08451C20.0757 7.87431 20.029 7.66269 19.9203 7.48L17.8712 4.02C17.7635 3.83752 17.5996 3.69288 17.4028 3.60669C17.2059 3.5205 16.9862 3.49716 16.775 3.54L14.8489 3.92C14.6038 3.96943 14.3486 3.92959 14.1316 3.808C13.9145 3.68641 13.7506 3.49149 13.6707 3.26L13.0457 1.43C12.977 1.23138 12.846 1.05887 12.6714 0.936844C12.4967 0.814821 12.2872 0.749461 12.0724 0.750002H7.97433C7.75091 0.73862 7.52982 0.798928 7.34482 0.921716C7.15982 1.0445 7.02109 1.22302 6.9498 1.43L6.37607 3.26C6.29616 3.49149 6.1322 3.68641 5.91515 3.808C5.6981 3.92959 5.44295 3.96943 5.19787 3.92L3.22054 3.54C3.0203 3.51238 2.81616 3.54322 2.63384 3.62864C2.45153 3.71406 2.29919 3.85023 2.19602 4.02L0.146969 7.48C0.0354598 7.66065 -0.0146783 7.87109 0.00372265 8.08123C0.0221236 8.29136 0.108121 8.49044 0.249421 8.65L1.55057 10.09C1.71482 10.2725 1.8054 10.5071 1.8054 10.75C1.8054 10.9929 1.71482 11.2275 1.55057 11.41L0.249421 12.85C0.108121 13.0096 0.0221236 13.2086 0.00372265 13.4188C-0.0146783 13.6289 0.0354598 13.8394 0.146969 14.02L2.19602 17.48C2.30369 17.6625 2.46764 17.8071 2.66448 17.8933C2.86133 17.9795 3.08102 18.0028 3.29226 17.96L5.21836 17.58C5.46344 17.5306 5.71859 17.5704 5.93564 17.692C6.15269 17.8136 6.31665 18.0085 6.39656 18.24L7.02152 20.07C7.0928 20.277 7.23154 20.4555 7.41654 20.5783C7.60154 20.7011 7.82263 20.7614 8.04604 20.75H12.1441C12.3589 20.7505 12.5684 20.6852 12.7431 20.5632C12.9178 20.4411 13.0487 20.2686 13.1174 20.07L13.7424 18.24C13.8223 18.0085 13.9863 17.8136 14.2033 17.692C14.4204 17.5704 14.6755 17.5306 14.9206 17.58L16.8467 17.96C17.0579 18.0028 17.2776 17.9795 17.4745 17.8933C17.6713 17.8071 17.8353 17.6625 17.9429 17.48L19.992 14.02C20.1008 13.8373 20.1475 13.6257 20.1254 13.4155C20.1033 13.2053 20.0135 13.0073 19.869 12.85L18.4859 11.41ZM16.9594 12.75L17.779 13.65L16.4676 15.87L15.2587 15.63C14.5208 15.4828 13.7532 15.6051 13.1016 15.9738C12.4501 16.3425 11.9599 16.9318 11.7241 17.63L11.3348 18.75H8.71198L8.34315 17.61C8.10736 16.9118 7.61716 16.3225 6.96559 15.9538C6.31401 15.5851 5.54643 15.4628 4.80855 15.61L3.59961 15.85L2.26773 13.64L3.08735 12.74C3.59137 12.19 3.87002 11.4779 3.87002 10.74C3.87002 10.0021 3.59137 9.29002 3.08735 8.74L2.26773 7.84L3.57912 5.64L4.78806 5.88C5.52594 6.02722 6.29352 5.90488 6.94509 5.5362C7.59667 5.16752 8.08687 4.57816 8.32266 3.88L8.71198 2.75H11.3348L11.7241 3.89C11.9599 4.58816 12.4501 5.17752 13.1016 5.5462C13.7532 5.91488 14.5208 6.03722 15.2587 5.89L16.4676 5.65L17.779 7.87L16.9594 8.77C16.461 9.31876 16.1859 10.0267 16.1859 10.76C16.1859 11.4933 16.461 12.2012 16.9594 12.75ZM10.0234 6.75C9.21285 6.75 8.42052 6.9846 7.74659 7.42412C7.07267 7.86365 6.5474 8.48836 6.23723 9.21927C5.92705 9.95017 5.8459 10.7544 6.00402 11.5304C6.16215 12.3063 6.55245 13.019 7.12558 13.5784C7.69871 14.1378 8.42892 14.5188 9.22387 14.6731C10.0188 14.8275 10.8428 14.7483 11.5916 14.4455C12.3405 14.1428 12.9805 13.6301 13.4308 12.9723C13.8811 12.3145 14.1215 11.5411 14.1215 10.75C14.1215 9.68914 13.6897 8.67172 12.9212 7.92157C12.1526 7.17143 11.1103 6.75 10.0234 6.75ZM10.0234 12.75C9.61811 12.75 9.22195 12.6327 8.88498 12.4129C8.54802 12.1932 8.28539 11.8808 8.1303 11.5154C7.97521 11.1499 7.93463 10.7478 8.0137 10.3598C8.09276 9.97186 8.28791 9.61549 8.57448 9.33579C8.86104 9.05608 9.22615 8.8656 9.62362 8.78843C10.0211 8.71126 10.4331 8.75087 10.8075 8.90224C11.1819 9.05362 11.5019 9.30996 11.7271 9.63886C11.9522 9.96776 12.0724 10.3544 12.0724 10.75C12.0724 11.2804 11.8565 11.7891 11.4723 12.1642C11.088 12.5393 10.5668 12.75 10.0234 12.75Z" fill="black"/>
</svg>
