<svg width="43" height="46" viewBox="0 0 43 46" fill="none" xmlns="http://www.w3.org/2000/svg">
<path d="M35.2479 15.4045C32.3773 14.9266 29.516 16.3604 28.3782 18.6343C27.7184 19.9555 27.3129 21.138 27.2559 22.2742C27.2019 23.3688 27.4686 24.5004 28.2888 25.746C29.2816 27.0626 30.1372 28.6952 30.7678 30.9044C30.813 31.0514 30.8284 31.206 30.8131 31.359C30.7978 31.512 30.7522 31.6604 30.6789 31.7956C30.6055 31.9308 30.506 32.0499 30.386 32.1461C30.266 32.2424 30.1281 32.3137 29.9802 32.3559C29.8324 32.3982 29.6776 32.4105 29.5249 32.3922C29.3722 32.3739 29.2247 32.3253 29.091 32.2493C28.9573 32.1732 28.8402 32.0713 28.7464 31.9495C28.6526 31.8276 28.584 31.6883 28.5447 31.5396C28.0005 29.6341 27.2805 28.2481 26.4295 27.1227L26.4172 27.1073C25.6001 26.0312 24.6597 25.1926 23.6314 24.3662C23.2909 24.0941 22.9481 23.8248 22.6031 23.5584C20.8287 22.1786 18.8029 20.6046 16.8928 17.9791C15.9832 18.4216 14.9688 19.2094 14.1085 20.2207C13.0833 21.4232 12.4173 22.7799 12.3233 23.9916C12.7025 24.5466 13.3793 24.932 14.2442 25.0939C15.2355 25.2789 16.2145 25.117 16.7618 24.8133C16.8947 24.7353 17.0419 24.6846 17.1948 24.6642C17.3476 24.6439 17.5029 24.6544 17.6517 24.695C17.8004 24.7356 17.9395 24.8055 18.0608 24.9007C18.1821 24.9958 18.2832 25.1143 18.358 25.2491C18.4329 25.3839 18.48 25.5323 18.4967 25.6855C18.5133 25.8388 18.4991 25.9939 18.455 26.1416C18.4108 26.2893 18.3376 26.4267 18.2395 26.5457C18.1415 26.6647 18.0206 26.7628 17.8841 26.8344C16.7695 27.4542 15.2201 27.6299 13.8187 27.3679C12.4065 27.1027 10.8926 26.3396 10.1218 24.7994L10 24.5574V24.2845C10 22.2449 11.0452 20.2531 12.348 18.7237C13.4271 17.4534 14.7992 16.3681 16.1667 15.7684V14.2637C16.1667 13.957 16.2885 13.6629 16.5053 13.4461C16.7222 13.2293 17.0163 13.1074 17.3229 13.1074C17.6296 13.1074 17.9237 13.2293 18.1405 13.4461C18.3573 13.6629 18.4792 13.957 18.4792 14.2637V16.2216C20.2582 18.7962 22.1221 20.2484 23.9798 21.6961C24.2995 21.9448 24.6186 22.1961 24.9372 22.4499C24.9393 22.3523 24.9423 22.2557 24.9465 22.1601C25.0266 20.566 25.5847 19.0506 26.3093 17.5999C27.9435 14.3346 31.85 12.4923 35.6271 13.1229C37.5157 13.4374 39.2177 14.3485 40.4448 15.8177C41.6751 17.29 42.375 19.2556 42.375 21.5866C42.375 23.8929 40.9675 26.6047 38.231 27.2168C39.5229 29.8361 40.4479 33.0258 40.0517 35.9996C39.637 39.1092 38.4484 41.5728 36.0711 43.2069C33.7555 44.801 30.4857 45.4824 26.1875 45.4824H14.2396C13.9329 45.4824 13.6388 45.3606 13.422 45.1438C13.2052 44.9269 13.0833 44.6328 13.0833 44.3262C13.0833 44.0195 13.2052 43.7254 13.422 43.5086C13.6388 43.2918 13.9329 43.1699 14.2396 43.1699H17.8193C16.9252 42.0892 16.2807 40.7372 15.9339 39.3605C15.4297 37.3563 15.476 35.0654 16.3424 32.9919C14.9241 33.1321 13.2822 32.961 11.5232 32.3058C11.3808 32.2528 11.2504 32.1722 11.1392 32.0687C11.028 31.9653 10.9382 31.8409 10.8751 31.7028C10.812 31.5646 10.7767 31.4154 10.7712 31.2636C10.7658 31.1118 10.7902 30.9604 10.8433 30.8181C10.8963 30.6758 10.9769 30.5453 11.0804 30.4341C11.1838 30.3229 11.3082 30.2332 11.4463 30.1701C11.5845 30.1069 11.7337 30.0716 11.8855 30.0662C12.0373 30.0607 12.1887 30.0852 12.331 30.1382C15.3588 31.2683 17.6158 30.5483 18.567 29.8453C18.6719 29.7528 18.7788 29.6603 18.8877 29.5678C19.0693 29.4127 19.2948 29.3181 19.5327 29.2971C19.7706 29.2761 20.0091 29.3297 20.2151 29.4506C20.4381 29.5795 20.6118 29.7792 20.7084 30.018C20.7945 30.2311 20.8151 30.4651 20.7676 30.69C20.7201 30.9149 20.6066 31.1205 20.4417 31.2806C20.3235 31.3978 20.194 31.5113 20.0532 31.6213C18.0151 33.5237 17.5557 36.3311 18.1755 38.7962C18.8507 41.4741 20.602 43.1638 22.3225 43.1699H26.1875C30.3099 43.1699 33.0155 42.5024 34.7592 41.3014C36.4457 40.1421 37.4031 38.3661 37.7593 35.6944C38.1231 32.9687 37.0732 29.7667 35.5901 27.1705L35.5716 27.1397C34.6617 26.8716 33.8368 26.3724 33.1774 25.6905C32.3203 24.8195 31.8053 23.7742 31.6172 23.0234C31.5428 22.7258 31.5897 22.4107 31.7476 22.1476C31.9054 21.8845 32.1613 21.6949 32.459 21.6205C32.7567 21.5461 33.0717 21.593 33.3348 21.7508C33.5979 21.9087 33.7875 22.1646 33.8619 22.4623C33.9498 22.8184 34.2627 23.4952 34.827 24.0702C35.3666 24.6206 36.0943 25.0307 37.0516 25.0307C38.8585 25.0307 40.0625 23.3996 40.0625 21.5866C40.0625 19.7289 39.5121 18.3075 38.6704 17.3008C37.8271 16.2925 36.6385 15.6358 35.2479 15.4045Z" fill="#6B3906"/>
<path d="M12 6.42097C12.0013 5.00772 11.5443 3.63357 10.6999 2.51198C9.85544 1.39039 8.67092 0.584141 7.33029 0.218463C5.98966 -0.147216 4.56796 -0.0518517 3.28602 0.489741C2.00409 1.03133 0.933668 1.98884 0.241036 3.21353C0.00235025 3.63473 -0.0622418 4.13523 0.0614713 4.60493C0.185184 5.07462 0.487069 5.47504 0.900711 5.71809C1.31435 5.96113 1.80587 6.02691 2.26714 5.90093C2.7284 5.77496 3.12163 5.46756 3.36032 5.04635C3.59743 4.62816 3.93853 4.28093 4.3493 4.03962C4.76007 3.79831 5.22601 3.67143 5.70023 3.67173C6.41629 3.67173 7.10302 3.96139 7.60935 4.47697C8.11568 4.99255 8.40013 5.69183 8.40013 6.42097C8.40013 7.15012 8.11568 7.8494 7.60935 8.36498C7.10302 8.88056 6.41629 9.17021 5.70023 9.17021H5.69483C5.57883 9.1827 5.4643 9.20664 5.35285 9.24169C5.23192 9.25382 5.11252 9.27838 4.99646 9.31501C4.89776 9.37013 4.80435 9.43456 4.71747 9.50745C4.61403 9.56478 4.51636 9.63231 4.42588 9.70906C4.3449 9.80756 4.27432 9.91445 4.21529 10.028C4.14969 10.1106 4.09127 10.1989 4.04069 10.2919C4.00117 10.4182 3.97522 10.5485 3.9633 10.6805C3.93285 10.7859 3.91176 10.8938 3.9003 11.003V12.8359L3.9039 12.856V13.7559C3.90485 14.2414 4.09491 14.7067 4.43236 15.0496C4.76981 15.3925 5.22708 15.5851 5.70383 15.5851H5.70923C5.9456 15.5846 6.17957 15.5367 6.39776 15.4442C6.61596 15.3516 6.81412 15.2162 6.98092 15.0457C7.14773 14.8752 7.27991 14.6728 7.36993 14.4503C7.45995 14.2277 7.50604 13.9893 7.50557 13.7486L7.50196 12.5353C8.79791 12.1445 9.93552 11.3385 10.7458 10.237C11.5562 9.1355 11.996 7.79725 12 6.42097ZM4.43488 18.8659C4.18213 19.1211 4.00939 19.447 3.9385 19.8022C3.86761 20.1574 3.90175 20.5261 4.03661 20.8615C4.17147 21.197 4.40099 21.4842 4.69615 21.6869C4.99131 21.8895 5.33885 21.9985 5.69483 22C6.17176 21.9951 6.62885 21.805 6.97278 21.4685C7.30699 21.1208 7.49415 20.6537 7.49415 20.1672C7.49415 19.6807 7.30699 19.2135 6.97278 18.8659C6.62826 18.5389 6.1748 18.3571 5.70383 18.3571C5.23286 18.3571 4.7794 18.5389 4.43488 18.8659Z" fill="#6B3906"/>
</svg>
